<?xml version="1.0" encoding="UTF-8" standalone="no"?>
<!DOCTYPE svg PUBLIC "-//W3C//DTD SVG 1.1//EN" "http://www.w3.org/Graphics/SVG/1.1/DTD/svg11.dtd">
<svg xmlns="http://www.w3.org/2000/svg" version="1.1" viewBox="0.00 0.00 500.00 500.00">
<path fill="#f6f4f4" d="
  M 148.77 250.18
  Q 148.78 262.75 149.77 271.74
  Q 150.56 278.83 153.25 289.00
  Q 157.60 305.47 167.35 319.14
  A 0.26 0.26 0.0 0 1 167.14 319.55
  C 157.34 319.84 149.35 319.68 140.03 317.11
  C 119.58 311.47 101.49 294.47 94.58 274.53
  Q 92.26 267.84 91.22 261.74
  Q 90.51 257.65 90.51 250.23
  Q 90.50 242.80 91.20 238.71
  Q 92.23 232.61 94.54 225.92
  C 101.42 205.97 119.49 188.94 139.93 183.27
  C 149.24 180.68 157.23 180.51 167.03 180.78
  A 0.26 0.26 0.0 0 1 167.24 181.19
  Q 157.51 194.88 153.19 211.36
  Q 150.52 221.53 149.74 228.62
  Q 148.76 237.61 148.77 250.18
  Z"
/>
<path fill="#f6f4f4" d="
  M 250.02 180.69
  Q 317.73 180.70 318.29 180.75
  A 3.18 3.00 15.0 0 1 318.73 180.82
  Q 322.10 181.58 325.28 185.33
  C 335.38 197.29 339.78 211.50 342.22 227.02
  Q 342.56 229.17 343.43 241.33
  Q 343.93 248.29 343.43 255.68
  Q 342.53 269.19 342.12 272.00
  Q 339.61 289.00 332.64 303.60
  C 330.19 308.71 325.37 317.41 319.34 319.26
  Q 318.34 319.57 310.18 319.58
  Q 309.03 319.59 250.01 319.58
  Q 190.99 319.58 189.84 319.58
  Q 181.68 319.56 180.68 319.25
  C 174.65 317.40 169.83 308.70 167.38 303.59
  Q 160.42 288.99 157.91 271.99
  Q 157.50 269.18 156.60 255.67
  Q 156.10 248.28 156.60 241.32
  Q 157.47 229.16 157.81 227.01
  C 160.25 211.49 164.66 197.28 174.76 185.32
  Q 177.94 181.57 181.31 180.81
  A 3.18 3.00 -15.0 0 1 181.75 180.74
  Q 182.31 180.69 250.02 180.69
  Z
  M 256.1940 199.2492
  A 50.76 50.14 -82.9 0 0 200.1645 243.4226
  A 50.76 50.14 -82.9 0 0 243.6460 299.9908
  A 50.76 50.14 -82.9 0 0 299.6755 255.8174
  A 50.76 50.14 -82.9 0 0 256.1940 199.2492
  Z"
/>
<path fill="#f6f4f4" d="
  M 332.33 319.15
  C 337.98 310.27 342.32 301.83 345.70 290.96
  C 348.66 281.45 350.58 270.65 350.89 260.94
  Q 351.30 247.86 350.86 236.41
  Q 350.51 227.22 348.74 218.70
  C 345.90 204.97 341.38 192.14 333.11 181.26
  A 0.30 0.30 0.0 0 1 333.34 180.78
  C 339.38 180.59 346.71 180.40 353.17 181.58
  Q 355.53 182.01 358.96 182.86
  C 384.25 189.11 404.15 211.25 408.48 236.49
  Q 410.20 246.55 408.89 260.08
  Q 408.64 262.66 407.98 264.53
  C 407.30 266.43 407.23 268.35 406.57 270.45
  Q 396.98 301.04 367.80 314.58
  Q 365.60 315.60 358.28 317.67
  C 350.03 320.01 341.75 319.79 332.60 319.64
  A 0.32 0.32 0.0 0 1 332.33 319.15
  Z"
/>
<path fill="#f6f4f4" d="
  M 244.3393 207.3947
  A 42.65 42.46 -97.6 0 1 292.0670 244.0544
  A 42.65 42.46 -97.6 0 1 255.6207 291.9453
  A 42.65 42.46 -97.6 0 1 207.8930 255.2856
  A 42.65 42.46 -97.6 0 1 244.3393 207.3947
  Z
  M 271.04 262.88
  A 4.60 4.60 0.0 0 0 269.35 256.62
  L 255.57 248.66
  A 3.06 3.05 -75.1 0 1 254.04 246.01
  L 254.04 221.23
  A 3.79 3.78 -0.0 0 0 250.25 217.45
  L 249.77 217.45
  A 4.25 4.25 0.0 0 0 245.52 221.67
  L 245.36 245.93
  A 1.90 1.82 53.4 0 1 245.30 246.40
  C 244.62 248.90 243.66 252.09 246.14 253.84
  Q 252.93 258.64 264.90 265.09
  A 4.34 4.34 0.0 0 0 270.75 263.39
  L 271.04 262.88
  Z"
/>
</svg>
